# xmcd
#
# Track frame offsets: 
#        150
#        20217
#        31497
#        61675
#        74605
#        96687
#        114122
#        123072
#        142582
#        168400
#        194877
#        217877
#        256880
#        274247
#        290407
#        304225
#
# Disc length: 4510 seconds
#
# Revision: 14
# Processed by: cddbd v1.5.2PL0 Copyright (c) Steve Scherf et al.
# Submitted via: ExactAudioCopy v1.3
#
DISCID=f0119c10
DTITLE=Gary Moore - After Hours
DYEAR=1992
DGENRE=Blues Rock
TTITLE0=Cold Day in Hell
TTITLE1=Don't You Lie to Me (I Get Evil)
TTITLE2=Story of the Blues
TTITLE3=Since I Met You Baby
TTITLE4=Separate Ways
TTITLE5=Only Fool in Town
TTITLE6=Key to Love
TTITLE7=Jumpin' at Shadows
TTITLE8=The Blues Is Alright
TTITLE9=The Hurt Inside
TTITLE10=Nothing's the Same
TTITLE11=All Time Low
TTITLE12=Woke up This Morning
TTITLE13=Movin' on down the Road
TTITLE14=Don't Start Me Talking
TTITLE15=Once in a Blue Moon
EXTD=YEAR: 1992
EXTT0=
EXTT1=
EXTT2=
EXTT3=
EXTT4=
EXTT5=
EXTT6=
EXTT7=
EXTT8=
EXTT9=
EXTT10=
EXTT11=
EXTT12=
EXTT13=
EXTT14=
EXTT15=
PLAYORDER=
